<?xml version="1.0" encoding="UTF-8" standalone="no"?>
<!DOCTYPE svg PUBLIC "-//W3C//DTD SVG 1.1//EN" "http://www.w3.org/Graphics/SVG/1.1/DTD/svg11.dtd">
<svg viewBox="0 0 1280 1280" version="1.1" xmlns="http://www.w3.org/2000/svg" xmlns:xlink="http://www.w3.org/1999/xlink" xml:space="preserve" style="fill-rule:evenodd;clip-rule:evenodd;stroke-linejoin:round;stroke-miterlimit:2;">
    <g transform="matrix(0.1,0,0,-0.1,0,1280)">
        <path d="M6135,11194C4943,11118 3886,10651 3047,9830C2285,9085 1800,8135 1651,7093C1613,6832 1605,6709 1606,6395C1606,5952 1644,5635 1745,5230C1834,4879 1926,4628 2095,4285C2280,3909 2459,3633 2731,3305C2849,3162 3192,2824 3347,2697C4058,2116 4886,1757 5787,1640C6099,1599 6477,1590 6585,1620C6767,1671 6913,1763 7019,1895C7149,2056 7210,2245 7196,2450C7184,2647 7128,2775 6977,2955C6910,3035 6840,3171 6814,3275C6789,3371 6789,3560 6814,3655C6877,3898 7039,4092 7263,4195C7412,4263 7404,4262 8150,4270C8521,4274 8836,4280 8850,4283C8864,4287 8920,4296 8975,4305C9511,4389 10025,4656 10422,5057C10746,5384 10961,5745 11094,6190C11202,6550 11227,7000 11164,7455C10978,8790 10098,9967 8785,10635C8203,10931 7600,11106 6920,11175C6773,11190 6266,11202 6135,11194Z" style="fill-rule:nonzero;"/>
    </g>
    <g transform="matrix(0.885981,0,0,0.885981,-633.01,459.925)">
        <circle class="palette-icon-red" cx="1104.15" cy="111.893" r="89.167"/>
    </g>
    <g transform="matrix(0.885981,0,0,0.885981,-471.245,249.484)">
        <circle class="palette-icon-green" cx="1104.15" cy="111.893" r="89.167"/>
    </g>
    <g transform="matrix(0.885981,0,0,0.885981,-207.318,247.159)">
        <circle class="palette-icon-blue" cx="1104.15" cy="111.893" r="89.167"/>
    </g>
    <g transform="matrix(0.885981,0,0,0.885981,-45.5577,462.28)">
        <circle class="palette-icon-yellow" cx="1104.15" cy="111.893" r="89.167"/>
    </g>
</svg>
